<svg width="400" height="400" viewBox="0 0 680 520" role="img" xmlns="http://www.w3.org/2000/svg">
<title>vSphere Compliance Manager Logo</title>
<desc>VCM logo: hexagonal shield with server rack motif</desc>

<rect width="680" height="520" fill="white"/>

<polygon points="340,60 435,113 435,219 340,272 245,219 245,113" fill="none" stroke="#2563EB" stroke-width="3" opacity="0.25"/>
<polygon points="340,74 424,121 424,215 340,262 256,215 256,121" fill="#1E3A8A"/>
<polygon points="340,90 410,131 410,209 340,250 270,209 270,131" fill="none" stroke="#60A5FA" stroke-width="1" opacity="0.4"/>

<rect x="295" y="127" width="90" height="18" rx="3" fill="#3B82F6" opacity="0.9"/>
<rect x="298" y="130" width="6" height="12" rx="2" fill="#93C5FD"/>
<rect x="308" y="130" width="6" height="12" rx="2" fill="#93C5FD"/>
<rect x="358" y="132" width="22" height="8" rx="2" fill="#1D4ED8"/>
<circle cx="385" cy="136" r="3" fill="#34D399"/>

<rect x="295" y="153" width="90" height="18" rx="3" fill="#3B82F6" opacity="0.9"/>
<rect x="298" y="156" width="6" height="12" rx="2" fill="#93C5FD"/>
<rect x="308" y="156" width="6" height="12" rx="2" fill="#93C5FD"/>
<rect x="358" y="158" width="22" height="8" rx="2" fill="#1D4ED8"/>
<circle cx="385" cy="162" r="3" fill="#FBBF24"/>

<rect x="295" y="179" width="90" height="18" rx="3" fill="#3B82F6" opacity="0.9"/>
<rect x="298" y="182" width="6" height="12" rx="2" fill="#93C5FD"/>
<rect x="308" y="182" width="6" height="12" rx="2" fill="#93C5FD"/>
<rect x="358" y="184" width="22" height="8" rx="2" fill="#1D4ED8"/>
<circle cx="385" cy="188" r="3" fill="#34D399"/>

<path d="M315 168 L330 183 L365 148" fill="none" stroke="#34D399" stroke-width="4" stroke-linecap="round" stroke-linejoin="round" opacity="0.9"/>

<circle cx="340" cy="74" r="4" fill="#60A5FA"/>
<circle cx="424" cy="121" r="4" fill="#60A5FA"/>
<circle cx="424" cy="215" r="4" fill="#60A5FA"/>
<circle cx="340" cy="262" r="4" fill="#60A5FA"/>
<circle cx="256" cy="215" r="4" fill="#60A5FA"/>
<circle cx="256" cy="121" r="4" fill="#60A5FA"/>

<line x1="340" y1="62" x2="340" y2="48" stroke="#3B82F6" stroke-width="1.5" opacity="0.5"/>
<line x1="340" y1="48" x2="325" y2="48" stroke="#3B82F6" stroke-width="1.5" opacity="0.5"/>
<circle cx="325" cy="48" r="2.5" fill="#3B82F6" opacity="0.6"/>
<line x1="424" y1="109" x2="437" y2="96" stroke="#3B82F6" stroke-width="1.5" opacity="0.5"/>
<circle cx="443" cy="90" r="2.5" fill="#3B82F6" opacity="0.6"/>
<line x1="256" y1="227" x2="243" y2="240" stroke="#3B82F6" stroke-width="1.5" opacity="0.5"/>
<circle cx="237" cy="246" r="2.5" fill="#3B82F6" opacity="0.6"/>

<text x="340" y="318" text-anchor="middle" font-family="Arial,Helvetica,sans-serif" font-size="32" font-weight="700" letter-spacing="0.5" fill="#1E3A8A">vSphere</text>
<text x="340" y="355" text-anchor="middle" font-family="Arial,Helvetica,sans-serif" font-size="22" font-weight="400" letter-spacing="2" fill="#3B82F6">COMPLIANCE MANAGER</text>
<line x1="200" y1="372" x2="480" y2="372" stroke="#3B82F6" stroke-width="0.8" opacity="0.4"/>
<text x="340" y="394" text-anchor="middle" font-family="Arial,Helvetica,sans-serif" font-size="13" font-weight="400" letter-spacing="1.5" fill="#64748B">DRS  ·  STORAGE  ·  AUTOMATION</text>
<rect x="306" y="418" width="68" height="28" rx="6" fill="#1E3A8A"/>
<text x="340" y="437" text-anchor="middle" font-family="Arial,Helvetica,sans-serif" font-size="14" font-weight="700" letter-spacing="2" fill="#FFFFFF">VCM</text>
</svg>
